<svg height="511pt" viewBox="-44 0 511 511.99964" width="511pt" xmlns="http://www.w3.org/2000/svg"><path d="m137.371094 366.710938c-5.933594 0-11.808594-2.589844-15.816406-7.574219-5.839844-7.261719-19.746094-13.519531-32.046876-10.96875-10.957031 2.269531-21.703124-4.769531-23.980468-15.738281-2.273438-10.964844 4.769531-21.703126 15.738281-23.976563 26.027344-5.398437 55.59375 4.988281 71.898437 25.265625 7.019532 8.730469 5.632813 21.496094-3.09375 28.515625-3.746093 3.011719-8.238281 4.476563-12.699218 4.476563zm0 0" fill="#eda1ab"/><path d="m163 302.066406c-7.742188 0-15.136719-4.457031-18.511719-11.980468-5.1875-11.550782-23.558593-23.800782-40.386719-22.914063-11.160156.585937-20.730468-7.996094-21.324218-19.183594-.59375-11.183593 7.996094-20.730469 19.179687-21.324219 32.035157-1.695312 66.988281 18.867188 79.535157 46.808594 4.585937 10.21875.019531 22.222656-10.199219 26.808594-2.695313 1.210938-5.515625 1.785156-8.292969 1.785156zm0 0" fill="#e26e7e"/><path d="m292.878906 140.785156c-1.019531 0-2.058594-.210937-3.050781-.652344-3.78125-1.6875-5.480469-6.121093-3.796875-9.90625 21.328125-47.816406 49.011719-57.71875 73.441406-66.457031 20.398438-7.300781 38.019532-13.605469 50.519532-42.230469 1.65625-3.796874 6.074218-5.53125 9.875-3.871093 3.792968 1.65625 5.527343 6.078125 3.871093 9.871093-15.089843 34.566407-37.523437 42.589844-59.214843 50.351563-23.695313 8.476563-46.074219 16.484375-64.792969 58.449219-1.242188 2.789062-3.980469 4.445312-6.851563 4.445312zm0 0" fill="#e26e7e"/><path d="m351.335938 140.773438c5.726562-15.828126-6-32.535157-22.828126-32.535157h-137.25c-129.878906 0-190.757812 83.175781-190.757812 147.097657 0 56.136718 18.664062 120.550781 102.101562 169.453124 10.003907 5.863282 21.457032-4.796874 16.507813-15.28125-30.480469-64.558593-39.929687-172.464843 72.148437-172.464843h56.714844c41.132813 0 77.863282-25.769531 91.855469-64.453125zm0 0" fill="#eda1ab"/><path d="m119.109375 409.507812c-17.101563-36.21875-27.578125-86.082031-13.691406-122.878906-31.136719-40.121094-46.519531-91.3125-45.851563-139.078125-39.855468 29.902344-59.066406 71.882813-59.066406 107.785157 0 56.136718 18.664062 120.550781 102.101562 169.453124 10 5.863282 21.457032-4.796874 16.507813-15.28125zm0 0" fill="#e26e7e"/><path d="m170.171875 498.121094c-6.089844 15.96875-27.453125 18.839844-37.539063 5.042968l-47.921874-65.511718c-9.820313-13.425782-8.386719-32 3.375-43.761719 11.757812-11.757813 30.335937-13.191406 43.757812-3.371094l8.3125 6.078125c31.734375 23.214844 44.027344 64.785156 30.015625 101.523438zm0 0" fill="#eda1ab"/><path d="m138.425781 461.429688c-2.332031 0-4.632812-1.085938-6.097656-3.125l-20.292969-28.246094c-2.414062-3.363282-1.648437-8.050782 1.714844-10.46875 3.363281-2.414063 8.050781-1.648438 10.46875 1.714844l20.292969 28.246093c2.414062 3.367188 1.648437 8.050781-1.714844 10.46875-1.324219.953125-2.855469 1.410157-4.371094 1.410157zm0 0" fill="#e26e7e"/><path d="m263.617188 172.726562c0-11.753906-11.964844-21.28125-26.722657-21.28125-14.757812 0-26.722656 9.527344-26.722656 21.28125 0 11.753907 11.964844 21.28125 26.722656 21.28125 14.757813 0 26.722657-9.527343 26.722657-21.28125zm0 0" fill="#fff"/><path d="m252.46875 158.996094c-4.140625 0-7.5-3.359375-7.5-7.5v-9.4375c0-4.140625 3.359375-7.5 7.5-7.5 4.144531 0 7.5 3.359375 7.5 7.5v9.4375c0 4.140625-3.355469 7.5-7.5 7.5zm0 0" fill="#4e5660"/><path d="m309.320312 166.242188c-7.914062 0-15.4375-3.425782-20.644531-9.398438-2.71875-3.121094-2.394531-7.859375.726563-10.582031 3.125-2.722657 7.859375-2.398438 10.582031.726562 2.359375 2.703125 5.761719 4.257813 9.335937 4.257813 3.574219 0 6.976563-1.554688 9.332032-4.257813 2.722656-3.121093 7.460937-3.449219 10.582031-.726562 3.125 2.722656 3.449219 7.460937.726563 10.582031-5.203126 5.972656-12.730469 9.398438-20.640626 9.398438zm0 0" fill="#4e5660"/><path d="m12.066406 205.335938c-2.683594 5.816406-4.882812 11.675781-6.628906 17.519531 8.871094 12.414062 21.75 25.488281 36.46875 36.699219 19.757812 15.046874 41.292969 25.667968 62.1875 30.875 1.585938-4.878907 3.578125-9.554688 6-13.96875-43.429688-9.921876-84.414062-45.6875-98.027344-71.125zm0 0" fill="#eda1ab"/><path d="m214.613281 123.746094c-1.023437 0-2.058593-.207032-3.050781-.652344-3.785156-1.683594-5.484375-6.121094-3.796875-9.902344 21.328125-47.816406 49.011719-57.722656 73.4375-66.460937 20.402344-7.300781 38.023437-13.605469 50.523437-42.226563 1.65625-3.796875 6.074219-5.535156 9.871094-3.875 3.796875 1.65625 5.53125 6.078125 3.875 9.875-15.089844 34.5625-37.523437 42.585938-59.214844 50.347656-23.695312 8.480469-46.078124 16.484376-64.792968 58.449219-1.242188 2.789063-3.984375 4.445313-6.851563 4.445313zm0 0" fill="#e26e7e"/><path d="m102.300781 123.890625c-1.355469 16.125.976563 36.460937 7.042969 56.464844 5.34375 17.632812 17.082031 45.976562 40.265625 63.144531 6.3125-2.269531 13.3125-3.992188 21.054687-5.082031-20.5625-8.867188-37.542968-31.335938-46.964843-62.414063-6.734375-22.207031-8.027344-44.0625-5.625-57.570312-5.449219 1.648437-10.714844 3.46875-15.773438 5.457031zm0 0" fill="#e26e7e"/><path d="m99.203125 333.425781c-26.4375 9.730469-61.808594 9.410157-79.917969 7.417969 2.648438 5.296875 5.628906 10.5625 8.988282 15.785156 4.1875.234375 8.714843.378906 13.492187.378906 18.289063 0 40.066406-2.039062 58.945313-8.265624-.730469-5.113282-1.242188-10.234376-1.507813-15.316407zm0 0" fill="#eda1ab"/></svg>